<?xml version="1.0" standalone="no"?>
<!DOCTYPE svg PUBLIC "-//W3C//DTD SVG 20010904//EN"
 "http://www.w3.org/TR/2001/REC-SVG-20010904/DTD/svg10.dtd">
<svg version="1.0" xmlns="http://www.w3.org/2000/svg"
 width="512.000000pt" height="512.000000pt" viewBox="0 0 512.000000 512.000000"
 preserveAspectRatio="xMidYMid meet">
<metadata>
Created by potrace 1.16, written by Peter Selinger 2001-2019
</metadata>
<g transform="translate(0.000000,512.000000) scale(0.100000,-0.100000)"
fill="#000000" stroke="none">
<path d="M1860 5113 c-87 -9 -264 -45 -355 -71 -341 -98 -641 -276 -896 -531
-326 -326 -529 -733 -594 -1192 -17 -122 -20 -426 -5 -549 106 -854 702 -1542
1524 -1760 206 -55 288 -64 556 -64 260 0 322 7 534 60 253 64 536 203 745
366 l63 50 697 -695 c383 -382 711 -703 730 -712 25 -13 51 -16 97 -13 68 4
101 21 138 71 28 38 34 142 11 188 -9 19 -330 347 -712 730 l-695 696 50 64
c204 261 342 579 409 939 25 138 25 532 0 684 -156 922 -864 1611 -1780 1731
-108 14 -418 19 -517 8z m525 -378 c320 -56 605 -206 871 -457 161 -152 307
-346 399 -528 223 -443 215 -1021 -21 -1491 -313 -626 -995 -1011 -1681 -950
-369 32 -645 148 -938 393 -341 284 -560 645 -632 1038 -21 119 -24 439 -5
550 59 332 182 603 388 850 274 330 659 543 1094 606 120 17 401 12 525 -11z"/>
</g>
</svg>
